<?xml version="1.0" encoding="utf-8"?>
<!-- Generator: Adobe Illustrator 24.1.2, SVG Export Plug-In . SVG Version: 6.00 Build 0)  -->
<svg version="1.1" xmlns="http://www.w3.org/2000/svg" xmlns:xlink="http://www.w3.org/1999/xlink" x="0px" y="0px"
	 viewBox="0 0 500 500" style="enable-background:new 0 0 500 500;" xml:space="preserve">
<style type="text/css">
	.st0{fill:#D5EAF2;}
	.st1{opacity:0.7;fill:#D5EAF2;}
	.st2{opacity:0.43;}
	.st3{fill:#92E3A9;}
	.st4{opacity:0.7;fill:#92E3A9;}
	.st5{fill:none;stroke:#263238;stroke-linecap:round;stroke-linejoin:round;stroke-miterlimit:10;}
	.st6{fill:#BABDBF;stroke:#263238;stroke-linecap:round;stroke-linejoin:round;stroke-miterlimit:10;}
	.st7{fill:#263238;}
	.st8{fill:#FFFFFF;stroke:#263238;stroke-linecap:round;stroke-linejoin:round;stroke-miterlimit:10;}
	.st9{fill:#263238;stroke:#263238;stroke-linecap:round;stroke-linejoin:round;stroke-miterlimit:10;}
	.st10{fill:url(#SVGID_1_);}
	.st11{fill:#FFFFFF;}
	.st12{fill-rule:evenodd;clip-rule:evenodd;fill:#FFFFFF;}
	.st13{fill-rule:evenodd;clip-rule:evenodd;fill:#CFABE1;}
	.st14{fill-rule:evenodd;clip-rule:evenodd;fill:#E9D9F2;}
	.st15{fill-rule:evenodd;clip-rule:evenodd;fill:#D5EAF2;}
	.st16{fill-rule:evenodd;clip-rule:evenodd;fill:#C9C2F1;}
	.st17{fill-rule:evenodd;clip-rule:evenodd;fill:#CDCFF1;}
	.st18{fill-rule:evenodd;clip-rule:evenodd;fill:#EFC2F1;}
	.st19{opacity:0.5;fill-rule:evenodd;clip-rule:evenodd;fill:#5B49AB;}
	.st20{fill:#160029;}
	.st21{fill-rule:evenodd;clip-rule:evenodd;fill:#8F00F9;}
	.st22{fill-rule:evenodd;clip-rule:evenodd;fill:#DA00F9;}
	.st23{fill-rule:evenodd;clip-rule:evenodd;fill:#DF60FA;}
	.st24{fill-rule:evenodd;clip-rule:evenodd;fill:#E384FA;}
	.st25{fill-rule:evenodd;clip-rule:evenodd;fill:#EAADFB;}
	.st26{fill-rule:evenodd;clip-rule:evenodd;fill:#F4D9FD;}
	.st27{fill-rule:evenodd;clip-rule:evenodd;fill:#3F57FA;}
	.st28{fill-rule:evenodd;clip-rule:evenodd;fill:#588CFA;}
	.st29{fill-rule:evenodd;clip-rule:evenodd;fill:#8495FB;}
	.st30{fill-rule:evenodd;clip-rule:evenodd;fill:#C8C0FC;}
	.st31{fill-rule:evenodd;clip-rule:evenodd;fill:#86E5FD;}
	.st32{fill-rule:evenodd;clip-rule:evenodd;fill:#B2BDFC;}
	.st33{fill-rule:evenodd;clip-rule:evenodd;fill:#D4C0FC;}
	.st34{fill:url(#SVGID_16_);}
	.st35{fill:#E9D9F2;}
	.st36{opacity:0.7;fill:#E9D9F2;}
	.st37{opacity:0.4;}
	.st38{fill:none;stroke:#263238;stroke-width:0.8379;stroke-linecap:round;stroke-linejoin:round;stroke-miterlimit:10;}
	.st39{fill:#263238;stroke:#263238;stroke-width:0.8379;stroke-linecap:round;stroke-linejoin:round;stroke-miterlimit:10;}
	.st40{fill:#FFFFFF;stroke:#263238;stroke-width:0.8379;stroke-linecap:round;stroke-linejoin:round;stroke-miterlimit:10;}
	.st41{fill:#92E3A9;stroke:#263238;stroke-width:0.8379;stroke-miterlimit:10;}
	.st42{fill:#D9BFF7;stroke:#263238;stroke-width:0.8779;stroke-miterlimit:10;}
	.st43{fill:#D9BFF7;stroke:#263238;stroke-width:0.8379;stroke-miterlimit:10;}
	.st44{fill:#B49AD8;stroke:#263238;stroke-width:0.8379;stroke-miterlimit:10;}
	.st45{fill:none;stroke:#263238;stroke-width:1.6759;stroke-linecap:round;stroke-linejoin:round;stroke-miterlimit:10;}
	.st46{opacity:0.39;}
	.st47{fill:#888FE5;}
	.st48{opacity:0.7;fill:#888FE5;}
	.st49{fill:#888FE5;stroke:#263238;stroke-miterlimit:10;}
	.st50{fill:#263238;stroke:#FFFFFF;stroke-linecap:round;stroke-linejoin:round;stroke-miterlimit:10;}
	.st51{fill:none;stroke:#263238;stroke-width:3;stroke-linecap:round;stroke-linejoin:round;stroke-miterlimit:10;}
	.st52{fill:none;stroke:#FFFFFF;stroke-width:3;stroke-linecap:round;stroke-linejoin:round;stroke-miterlimit:10;}
	.st53{font-family:'Axiforma-Bold';}
	.st54{font-size:30.7304px;}
</style>
<g id="Background_Simple">
</g>
<g id="Graphics">
</g>
<g id="Table">
</g>
<g id="Plant">
</g>
<g id="Mouse">
</g>
<g id="Keyboard">
</g>
<g id="Device">
	<g class="st46">
		<path class="st47" d="M483,247c-4.9,41.8-24,90.4-62.1,112.7c-57.6,33.7-52.8,85.6-165.2,108.2c-17.5,3.5-34.2,5-49.8,4.7
			c-8.4-0.2-16.6-0.8-24.5-2c-71.4-10.4-119.5-60.1-137.2-120.1C20.9,271.8,67.3,220.2,98,189.1C128.7,158,151.2,61,261.6,38
			c16.8-3.5,34-5.3,51.2-4.9c39.3,1,82.1,13.9,111.7,40.8c2.2,2,4.4,4.1,6.5,6.3C472.2,122.4,489.7,190,483,247z"/>
		<path class="st48" d="M483,247c-4.9,41.8-24,90.4-62.1,112.7c-57.6,33.7-52.8,85.6-165.2,108.2c-17.5,3.5-34.2,5-49.8,4.7
			c-8.4-0.2-16.6-0.8-24.5-2c-71.4-10.4-119.5-60.1-137.2-120.1C20.9,271.8,67.3,220.2,98,189.1C128.7,158,151.2,61,261.6,38
			c16.8-3.5,34-5.3,51.2-4.9c39.3,1,82.1,13.9,111.7,40.8c2.2,2,4.4,4.1,6.5,6.3C472.2,122.4,489.7,190,483,247z"/>
	</g>
	<g>
		<line class="st5" x1="475.7" y1="291.7" x2="490.9" y2="291.7"/>
		<line class="st5" x1="34.6" y1="291.7" x2="468.9" y2="291.7"/>
	</g>
	<g>
		<g>
			<path class="st7" d="M452.4,174.6v-7.8l-7.5-1.1c-0.7-3.8-2.2-7.4-4.3-10.5l4.6-6.1l-5.5-5.5l-6.1,4.5c-3.1-2.1-6.6-3.7-10.5-4.4
				l-1.1-7.5h-7.8l-1.1,7.5c-3.8,0.7-7.4,2.2-10.5,4.3l-6.1-4.6L391,149l4.5,6.1c-2.1,3.1-3.7,6.6-4.4,10.5l-7.5,1.1v7.8l7.5,1.1
				c0.7,3.8,2.2,7.4,4.3,10.5l-4.6,6.1l5.5,5.5l6.1-4.5c3.1,2.1,6.6,3.7,10.5,4.4l1.1,7.5h7.8l1.1-7.5c3.8-0.7,7.4-2.2,10.5-4.3
				l6.1,4.6l5.5-5.5l-4.5-6.1c2.1-3.1,3.7-6.6,4.4-10.5L452.4,174.6z M418.1,189.5c-10.5,0-19-8.5-19-19c0-10.5,8.5-19,19-19
				s19,8.5,19,19C437,181.1,428.5,189.5,418.1,189.5z"/>
			<path class="st7" d="M474.1,221.3v-5.6l-5.4-0.8c-0.5-2.7-1.6-5.3-3.1-7.5l3.3-4.3l-4-4l-4.3,3.2c-2.2-1.5-4.7-2.6-7.5-3.1
				l-0.8-5.4h-5.6l-0.8,5.4c-2.7,0.5-5.3,1.6-7.5,3.1l-4.3-3.3l-4,4l3.2,4.3c-1.5,2.2-2.6,4.7-3.1,7.5l-5.4,0.8v5.6l5.4,0.8
				c0.5,2.7,1.6,5.3,3.1,7.5l-3.3,4.3l4,4l4.3-3.2c2.2,1.5,4.7,2.6,7.5,3.1l0.8,5.4h5.6l0.8-5.4c2.7-0.5,5.3-1.6,7.5-3.1l4.3,3.3
				l4-4l-3.2-4.3c1.5-2.2,2.6-4.7,3.1-7.5L474.1,221.3z M449.5,232c-7.5,0-13.6-6.1-13.6-13.6s6.1-13.6,13.6-13.6
				c7.5,0,13.6,6.1,13.6,13.6S457,232,449.5,232z"/>
		</g>
		<g>
			<path class="st7" d="M78.5,217.4v7.1l6.8,1c0.6,3.5,2,6.7,3.9,9.6l-4.2,5.5l5.1,5.1l5.5-4.1c2.8,1.9,6.1,3.3,9.5,4l1,6.9h7.1
				l1-6.8c3.5-0.6,6.7-2,9.6-3.9l5.5,4.2l5.1-5.1l-4.1-5.5c1.9-2.8,3.3-6.1,4-9.5l6.9-1v-7.1l-6.8-1c-0.6-3.5-2-6.7-3.9-9.6l4.2-5.5
				l-5.1-5.1l-5.5,4.1c-2.8-1.9-6.1-3.3-9.5-4l-1-6.9h-7.1l-1,6.8c-3.5,0.6-6.7,2-9.6,3.9l-5.5-4.2l-5.1,5.1l4.1,5.5
				c-1.9,2.8-3.3,6.1-4,9.5L78.5,217.4z M109.8,203.7c9.6,0,17.3,7.8,17.3,17.3c0,9.6-7.8,17.3-17.3,17.3s-17.3-7.8-17.3-17.3
				C92.5,211.5,100.3,203.7,109.8,203.7z"/>
			<path class="st7" d="M60.8,178.5v4.4l4.2,0.6c0.4,2.1,1.2,4.1,2.4,5.8l-2.5,3.4l3.1,3.1l3.4-2.5c1.7,1.2,3.7,2,5.8,2.4l0.6,4.2
				h4.4l0.6-4.2c2.1-0.4,4.1-1.2,5.8-2.4l3.4,2.5l3.1-3.1l-2.5-3.4c1.2-1.7,2-3.7,2.4-5.8l4.2-0.6v-4.4l-4.2-0.6
				c-0.4-2.1-1.2-4.1-2.4-5.8l2.5-3.4l-3.1-3.1l-3.4,2.5c-1.7-1.2-3.7-2-5.8-2.4l-0.6-4.2h-4.4l-0.6,4.2c-2.1,0.4-4.1,1.2-5.8,2.4
				l-3.4-2.5l-3.1,3.1l2.5,3.4c-1.2,1.7-2,3.7-2.4,5.8L60.8,178.5z M79.9,170.2c5.8,0,10.6,4.7,10.6,10.6c0,5.8-4.7,10.6-10.6,10.6
				c-5.8,0-10.6-4.7-10.6-10.6C69.4,174.9,74.1,170.2,79.9,170.2z"/>
			<path class="st7" d="M228.7,99v6l5.7,0.8c0.5,2.9,1.7,5.6,3.3,8l-3.5,4.6l4.2,4.2l4.6-3.5c2.4,1.6,5.1,2.8,8,3.3l0.8,5.8h6
				l0.8-5.7c2.9-0.5,5.6-1.7,8-3.3l4.6,3.5l4.2-4.2l-3.5-4.6c1.6-2.4,2.8-5.1,3.3-8l5.8-0.8v-6l-5.7-0.8c-0.5-2.9-1.7-5.6-3.3-8
				l3.5-4.6l-4.2-4.2l-4.6,3.5c-2.4-1.6-5.1-2.8-8-3.3l-0.8-5.8h-6l-0.8,5.7c-2.9,0.5-5.7,1.7-8,3.3l-4.6-3.5l-4.2,4.2l3.5,4.6
				c-1.6,2.4-2.8,5.1-3.3,8L228.7,99z M254.9,87.6c8,0,14.5,6.5,14.5,14.5c0,8-6.5,14.5-14.5,14.5c-8,0-14.5-6.5-14.5-14.5
				C240.4,94.1,246.9,87.6,254.9,87.6z"/>
		</g>
	</g>
	<path id="XMLID_4_" class="st9" d="M409.9,298.1h-291V106.7c0-4.4,3.6-8,8-8H402c4.4,0,8,3.6,8,8V298.1z"/>
	<polygon id="XMLID_46_" class="st8" points="453.6,386.3 75.2,386.3 118.9,298.1 409.9,298.1 	"/>
	<rect id="XMLID_44_" x="136.5" y="114.5" class="st49" width="255.8" height="167.8"/>
	<g id="XMLID_51_">
		<polygon id="XMLID_74_" class="st50" points="252.3,326 252.8,315.3 237.4,315.3 236.4,326 		"/>
		<polygon id="XMLID_75_" class="st50" points="284.1,326 283.5,315.3 268.2,315.3 268.2,326 		"/>
		<polygon id="XMLID_76_" class="st50" points="366.8,337.5 383.3,337.5 379.4,326 363.5,326 		"/>
		<polygon id="XMLID_77_" class="st50" points="236.4,326 237.4,315.3 222,315.3 220.5,326 		"/>
		<polygon id="XMLID_78_" class="st50" points="204.6,326 206.6,315.3 191.3,315.3 188.7,326 		"/>
		<polygon id="XMLID_80_" class="st50" points="347.6,326 345,315.3 329.7,315.3 331.7,326 		"/>
		<polygon id="XMLID_81_" class="st50" points="363.5,326 360.4,315.3 345,315.3 347.6,326 		"/>
		<polygon id="XMLID_82_" class="st50" points="188.7,326 191.3,315.3 175.9,315.3 172.8,326 		"/>
		<polygon id="XMLID_83_" class="st50" points="300,326 298.9,315.3 283.5,315.3 284.1,326 		"/>
		<polygon id="XMLID_84_" class="st50" points="379.4,326 375.8,315.3 360.4,315.3 363.5,326 		"/>
		<polygon id="XMLID_85_" class="st50" points="331.7,326 329.7,315.3 314.3,315.3 315.8,326 		"/>
		<polygon id="XMLID_86_" class="st50" points="315.8,326 314.3,315.3 298.9,315.3 300,326 		"/>
		<polygon id="XMLID_87_" class="st50" points="268.2,326 268.2,315.3 252.8,315.3 252.3,326 		"/>
		<polygon id="XMLID_94_" class="st50" points="156.9,326 141,326 136.6,337.5 153.1,337.5 		"/>
		<polygon id="XMLID_95_" class="st50" points="160.5,315.3 145.1,315.3 141,326 156.9,326 		"/>
		<polygon id="XMLID_96_" class="st50" points="172.8,326 175.9,315.3 160.5,315.3 156.9,326 		"/>
		<polygon id="XMLID_97_" class="st50" points="131.9,349.8 126.9,363.1 144.5,363.1 149,349.8 		"/>
		<polygon id="XMLID_98_" class="st50" points="153.1,337.5 136.6,337.5 131.9,349.8 149,349.8 		"/>
		<polygon id="XMLID_99_" class="st50" points="149,349.8 144.5,363.1 162.2,363.1 166,349.8 		"/>
		<polygon id="XMLID_100_" class="st50" points="220.5,326 222,315.3 206.6,315.3 204.6,326 		"/>
		<polygon id="XMLID_101_" class="st50" points="218.9,337.5 220.5,326 204.6,326 202.4,337.5 		"/>
		<polygon id="XMLID_102_" class="st50" points="202.4,337.5 204.6,326 188.7,326 186,337.5 		"/>
		<polygon id="XMLID_103_" class="st50" points="235.3,337.5 236.4,326 220.5,326 218.9,337.5 		"/>
		<polygon id="XMLID_104_" class="st50" points="172.8,326 156.9,326 153.1,337.5 169.5,337.5 		"/>
		<polygon id="XMLID_105_" class="st50" points="370.4,349.8 387.4,349.8 383.3,337.5 366.8,337.5 		"/>
		<polygon id="XMLID_106_" class="st50" points="186,337.5 188.7,326 172.8,326 169.5,337.5 		"/>
		<polygon id="XMLID_107_" class="st50" points="153.1,337.5 149,349.8 166,349.8 169.5,337.5 		"/>
		<polygon id="XMLID_108_" class="st50" points="333.9,337.5 331.7,326 315.8,326 317.5,337.5 		"/>
		<polygon id="XMLID_109_" class="st50" points="317.5,337.5 315.8,326 300,326 301.1,337.5 		"/>
		<polygon id="XMLID_110_" class="st50" points="366.8,337.5 363.5,326 347.6,326 350.4,337.5 		"/>
		<polygon id="XMLID_111_" class="st50" points="268.2,337.5 268.2,326 252.3,326 251.7,337.5 		"/>
		<polygon id="XMLID_112_" class="st50" points="301.1,337.5 300,326 284.1,326 284.6,337.5 		"/>
		<polygon id="XMLID_113_" class="st50" points="284.6,337.5 284.1,326 268.2,326 268.2,337.5 		"/>
		<polygon id="XMLID_114_" class="st50" points="251.7,337.5 252.3,326 236.4,326 235.3,337.5 		"/>
		<polygon id="XMLID_115_" class="st50" points="301.1,337.5 302.3,349.8 319.3,349.8 317.5,337.5 		"/>
		<polygon id="XMLID_116_" class="st50" points="317.5,337.5 319.3,349.8 336.3,349.8 333.9,337.5 		"/>
		<polygon id="XMLID_117_" class="st50" points="169.5,337.5 166,349.8 183,349.8 186,337.5 		"/>
		<polygon id="XMLID_118_" class="st50" points="333.9,337.5 336.3,349.8 353.3,349.8 350.4,337.5 		"/>
		<polygon id="XMLID_119_" class="st50" points="268.2,337.5 268.2,349.8 285.2,349.8 284.6,337.5 		"/>
		<polygon id="XMLID_120_" class="st50" points="350.4,337.5 353.3,349.8 370.4,349.8 366.8,337.5 		"/>
		<polygon id="XMLID_121_" class="st50" points="284.6,337.5 285.2,349.8 302.3,349.8 301.1,337.5 		"/>
		<polygon id="XMLID_122_" class="st50" points="202.4,337.5 200.1,349.8 217.1,349.8 218.9,337.5 		"/>
		<polygon id="XMLID_123_" class="st50" points="186,337.5 183,349.8 200.1,349.8 202.4,337.5 		"/>
		<polygon id="XMLID_124_" class="st50" points="251.7,337.5 251.2,349.8 268.2,349.8 268.2,337.5 		"/>
		<polygon id="XMLID_125_" class="st50" points="235.3,337.5 234.1,349.8 251.2,349.8 251.7,337.5 		"/>
		<polygon id="XMLID_126_" class="st50" points="218.9,337.5 217.1,349.8 234.1,349.8 235.3,337.5 		"/>
		<polygon id="XMLID_127_" class="st50" points="350.4,337.5 347.6,326 331.7,326 333.9,337.5 		"/>
		<polygon id="XMLID_132_" class="st50" points="160.5,315.3 164.2,304.3 149.3,304.3 145.1,315.3 		"/>
		<polygon id="XMLID_135_" class="st50" points="145.1,315.3 130.9,315.3 126.4,326 141,326 		"/>
		<polygon id="XMLID_136_" class="st50" points="149.3,304.3 135.6,304.3 130.9,315.3 145.1,315.3 		"/>
		<polygon id="XMLID_137_" class="st50" points="141,326 126.4,326 121.5,337.5 136.6,337.5 		"/>
		<polygon id="XMLID_138_" class="st50" points="136.6,337.5 121.5,337.5 116.2,349.8 131.9,349.8 		"/>
		<polygon id="XMLID_3_" class="st50" points="131.9,349.8 116.2,349.8 110.6,363.1 126.9,363.1 		"/>
		<polygon id="XMLID_2_" class="st50" points="395.3,326 399.7,337.5 414.3,337.5 409.4,326 		"/>
		<polygon id="XMLID_147_" class="st50" points="404.4,349.8 419.5,349.8 414.3,337.5 399.7,337.5 		"/>
		<polygon id="XMLID_148_" class="st50" points="409.5,363.1 425.1,363.1 419.5,349.8 404.4,349.8 		"/>
		<polygon id="XMLID_155_" class="st50" points="283.5,315.3 283,304.3 268.1,304.3 268.2,315.3 		"/>
		<polygon id="XMLID_156_" class="st50" points="395.3,326 409.4,326 404.8,315.3 391.2,315.3 		"/>
		<polygon id="XMLID_157_" class="st50" points="387.4,349.8 404.4,349.8 399.7,337.5 383.3,337.5 		"/>
		<polygon id="XMLID_158_" class="st50" points="175.9,315.3 179,304.3 164.2,304.3 160.5,315.3 		"/>
		<polygon id="XMLID_159_" class="st50" points="375.8,315.3 379.4,326 395.3,326 391.2,315.3 		"/>
		<polygon id="XMLID_160_" class="st50" points="404.8,315.3 400.1,304.3 387,304.3 391.2,315.3 		"/>
		<polygon id="XMLID_161_" class="st50" points="391.2,315.3 387,304.3 372.1,304.3 375.8,315.3 		"/>
		<polygon id="XMLID_162_" class="st50" points="336.3,349.8 338.9,363.1 356.5,363.1 353.3,349.8 		"/>
		<polygon id="XMLID_163_" class="st50" points="391.9,363.1 409.5,363.1 404.4,349.8 387.4,349.8 		"/>
		<polygon id="XMLID_164_" class="st50" points="375.8,315.3 372.1,304.3 357.3,304.3 360.4,315.3 		"/>
		<polygon id="XMLID_167_" class="st50" points="370.4,349.8 374.2,363.1 391.9,363.1 387.4,349.8 		"/>
		<polygon id="XMLID_168_" class="st50" points="353.3,349.8 356.5,363.1 374.2,363.1 370.4,349.8 		"/>
		<polygon id="XMLID_169_" class="st50" points="383.3,337.5 399.7,337.5 395.3,326 379.4,326 		"/>
		<polygon id="XMLID_170_" class="st50" points="237.4,315.3 238.4,304.3 223.6,304.3 222,315.3 		"/>
		<polygon id="XMLID_171_" class="st50" points="360.4,315.3 357.3,304.3 342.4,304.3 345,315.3 		"/>
		<polygon id="XMLID_172_" class="st50" points="222,315.3 223.6,304.3 208.7,304.3 206.6,315.3 		"/>
		<polygon id="XMLID_173_" class="st50" points="268.2,315.3 268.1,304.3 253.3,304.3 252.8,315.3 		"/>
		<polygon id="XMLID_174_" class="st50" points="206.6,315.3 208.7,304.3 193.9,304.3 191.3,315.3 		"/>
		<polygon id="XMLID_175_" class="st50" points="191.3,315.3 193.9,304.3 179,304.3 175.9,315.3 		"/>
		<polygon id="XMLID_176_" class="st50" points="252.8,315.3 253.3,304.3 238.4,304.3 237.4,315.3 		"/>
		<polygon id="XMLID_177_" class="st50" points="345,315.3 342.4,304.3 327.6,304.3 329.7,315.3 		"/>
		<polygon id="XMLID_178_" class="st50" points="329.7,315.3 327.6,304.3 312.7,304.3 314.3,315.3 		"/>
		<polygon id="XMLID_179_" class="st50" points="298.9,315.3 297.8,304.3 283,304.3 283.5,315.3 		"/>
		<polygon id="XMLID_53_" class="st50" points="336.3,349.8 319.3,349.8 302.3,349.8 285.2,349.8 268.2,349.8 251.2,349.8 
			234.1,349.8 217.1,349.8 200.1,349.8 183,349.8 166,349.8 162.2,363.1 179.9,363.1 197.5,363.1 215.2,363.1 232.9,363.1 
			250.5,363.1 268.2,363.1 285.9,363.1 303.5,363.1 321.2,363.1 338.9,363.1 		"/>
		<polygon id="XMLID_181_" class="st50" points="314.3,315.3 312.7,304.3 297.8,304.3 298.9,315.3 		"/>
	</g>
	<rect id="XMLID_45_" x="75.2" y="386.3" class="st9" width="378.5" height="5.4"/>
	<path class="st9" d="M345.8,392.3l34.6,28.6c0,0,2,5.4,6.8,11.6c4.8,6.1,60.6,29.3,60.6,29.3l9.5,2.7l-104.2-78.3L345.8,392.3z"/>
	<path class="st8" d="M413.2,369.5c0,0-9.3-11.4-13.4-18.6c-4.1-7.2-10-24.1-14.5-34.1c-4.5-10-11-13.1-18.9-16.2s-11-2.4-11-0.3
		c0,2.1,3.1,5.8,3.1,5.8l-13.4,2.4c0,0-5.5-3.1-8.9-2.1c-3.4,1-10,7.6-10,7.6s-6.9-2.4-11-1.4c-4.1,1-15.5,6.5-20.3,8.9
		c-4.8,2.4-10,2.8-9.6,4.8c0.3,2.1,5.2,5.5,9.6,4.8c4.5-0.7,12-3.4,16.9-3.4c4.8,0,7.2,1,9.6,2.8c2.4,1.7,12.4,15.8,13.8,17.5
		c1.4,1.7,2.8,8.6,2.8,8.6s-6.1-2.6-9.9-6c-3.8-3.4-9.2-11.5-15.4-12.2c-6.2-0.7-12.9,4.8-9.5,7.6c3.4,2.8,6.9,4.5,9.3,7.6
		c2.4,3.1,6.2,12.4,12.7,22.4c6.5,10,20.6,16.2,20.6,16.2l29.2,12c0,0,7.6-17.9,21.7-22.7c14.1-4.8,18.2-6.9,18.2-6.9L413.2,369.5z"
		/>
	<path class="st5" d="M285.2,326.5c0,0,3.4-0.9,4.3-1.2c1-0.3,2.1-1.3,2.1-1.3"/>
	<path class="st5" d="M326.2,314.1c0,0,15.8,8.9,20.3,11.3c1.8,1,6.2,3,7.5,7.5c1.6,5.3,4.8,8.2,4.8,8.2"/>
	<path class="st5" d="M345.1,308.6c0,0,15.5,12,16.5,12.4c1,0.3,4.8,0.7,6.5,3.8c1.7,3.1,3.4,6.5,3.4,6.5"/>
	<path class="st5" d="M358.5,306.2c0,0,5.5-1,7.6,3.1c2.1,4.1,11,14.1,11,14.1"/>
	<path class="st5" d="M309.3,350.6c0,0,4.1-2.1,2.1-5.2c-2.1-3.1-6.2-3.1-6.2-3.1"/>
	<path class="st49" d="M412.5,365.1c0,0-18.6,4.8-30.3,17.9c-11.7,13.1-11.7,24.1-10.7,25.8c1,1.7,23.4,13.8,23.4,13.8
		s13.8-26.5,23.4-33c9.6-6.5,16.5-8.3,16.5-8.3s-17.2-11-17.9-12.4C416.3,367.5,415,364,412.5,365.1z"/>
	<path class="st49" d="M464.8,468.6c0,0-18.9-9.6-23.4-12c-4.5-2.4-35.1-18.9-35.1-18.9s-3.8-1-5.8-2.1c-2.1-1-5.2-0.7-6.5-7.9
		c-1.4-7.2,2.1-21.7,17.5-36.1c15.5-14.5,25.1-13.8,25.1-13.8s6.5-0.7,8.3,0.7c1.7,1.4,2.1,5.5,3.8,6.2c1.7,0.7,49.3,15,49.3,15"/>
	<path class="st5" d="M410.8,415.7c0,0-2.1,10.3,2.8,18.9"/>
	<path class="st5" d="M415.6,429.1c0,0-2.1,0.7,3.4,9.6"/>
	<path class="st9" d="M203.6,361.9c0,0-22.7,27-29.5,32.4c-6.8,5.4-12.9,8.9-12.9,8.9l-24.5,24.5c0,0,0.7,3.4-6.1,7.5
		c-6.8,4.1-20.4,8.9-23.8,10.2c-3.4,1.4-40.9,18.4-40.9,18.4L203.6,361.9z"/>
	<path class="st8" d="M236.5,320.6c-2.4,0.7-11,0.2-11,0.2s-5.2-4.1-7.9-6.4c-2.6-2.4-9.3-16.5-12.6-17.2
		c-3.3-0.7-17.4,7.4-17.4,7.4s-11.4-5-14.3-4.5s-12.2,8.8-12.2,8.8s-12.9-1.9-15.3,1.9c-2.4,3.8-6.2,16-10,23.6
		c-3.8,7.6-17.6,27.9-17.6,27.9l-1.9,2.6c0,0,2.9,1,11.7,5.5c8.8,4.5,22.9,26,22.9,26s19.6-9.1,30.5-14.1c11-5,19.8-16,22.2-20.5
		c2.4-4.5,6.4-8.8,11.4-12.9c5-4.1,14.3-5.7,16.5-8.6c2.1-2.9-1.4-7.2-1.4-7.2s2.6-1.4,3.8-2.4c1.2-1,6-3.6,6.4-6.4
		S238.9,319.9,236.5,320.6z M199.8,343.5l4.5-13.8c1.9,1.4,10.3,4.5,10.3,4.5C209.1,335.7,199.8,343.5,199.8,343.5z"/>
	<path class="st5" d="M152.1,324.7c0,0-0.7-4.1-0.2-5.5c0.5-1.4,9.3-10.3,9.3-10.3"/>
	<polyline class="st5" points="159.7,329.5 161.6,323.3 187.6,304.7 	"/>
	<path class="st5" d="M172.6,334c0,0,1-6,2.1-6.9c1.2-1,10.3-3.1,10.3-3.1s13.8-11.9,16.2-11.9c2.4,0,19.8,9.3,24.3,8.8"/>
	<path class="st5" d="M233.2,321.8c0,0-3.1,0-1.4,1.9c1.7,1.9,5.2,1,6.9,0.5"/>
	<path class="st5" d="M214.6,334.2c0,0,8.6-5,15.5-1"/>
	<path class="st5" d="M227.9,334.7l-4.8,1.7c0,0,1.9,3.8,2.1,5.2c0.2,1.4,0.2,1.4,0.2,1.4"/>
	<line class="st5" x1="199.8" y1="343.5" x2="195.5" y2="353.1"/>
	<path class="st49" d="M86.5,380.5c0,0,15-9.8,20.5-13.8c5.5-4.1,8.3-3.3,11.2-4.3c2.9-1,17.2,3.3,26.7,15.3
		c9.5,11.9,8.6,20.7,7.4,23.1c-1.2,2.4-31.2,20.5-31.2,20.5s-4.3-17.2-16.9-27.4C91.5,383.6,86.5,380.5,86.5,380.5z"/>
	<path class="st49" d="M26.4,409c0,0,27.8-17,32.5-19.8c4.6-2.8,10-6.6,10-6.6s1.5-7.4,8.5-7.6c7.1-0.3,13.9,2.5,23.2,7.6
		c9.3,5.1,20.7,23.6,22,31c1.2,7.4,3.7,9.6,1.7,14.5c-2,4.8-9.3,5.1-10.7,5.1c-1.5,0-4.9,3-4.9,3l-52.2,34"/>
	<path class="st5" d="M112.8,420.2c0,0,2.2,1.6-2.2,8.4"/>
	<path class="st5" d="M109.7,423.4c0,0-0.3,7.1-6.9,13.6"/>
	<g>
		<g>
			<line class="st51" x1="151.3" y1="129" x2="167.8" y2="129"/>
			<line class="st52" x1="151.3" y1="137.5" x2="213.2" y2="137.5"/>
			<line class="st52" x1="247.1" y1="137.5" x2="309" y2="137.5"/>
			<line class="st51" x1="217.2" y1="137.5" x2="241.7" y2="137.5"/>
			<line class="st51" x1="151.3" y1="145.9" x2="186.9" y2="145.9"/>
			<line class="st51" x1="191.4" y1="145.9" x2="227" y2="145.9"/>
			<line class="st51" x1="231.5" y1="145.9" x2="267.1" y2="145.9"/>
			<line class="st51" x1="271.6" y1="145.9" x2="286.8" y2="145.9"/>
			<line class="st51" x1="172.2" y1="129" x2="188.7" y2="129"/>
			<g>
				<line class="st51" x1="270.3" y1="129" x2="286.8" y2="129"/>
				<line class="st52" x1="248.4" y1="129" x2="264.9" y2="129"/>
				<line class="st51" x1="193.2" y1="129" x2="241.3" y2="129"/>
			</g>
		</g>
		<g>
			<line class="st51" x1="208" y1="180.7" x2="224.5" y2="180.7"/>
			<line class="st52" x1="208" y1="189.2" x2="270" y2="189.2"/>
			<line class="st51" x1="303.9" y1="189.2" x2="365.8" y2="189.2"/>
			<line class="st51" x1="274" y1="189.2" x2="298.5" y2="189.2"/>
			<line class="st51" x1="208" y1="197.6" x2="243.7" y2="197.6"/>
			<line class="st51" x1="248.2" y1="197.6" x2="283.8" y2="197.6"/>
			<line class="st52" x1="288.3" y1="197.6" x2="323.9" y2="197.6"/>
			<line class="st51" x1="328.4" y1="197.6" x2="343.5" y2="197.6"/>
			<line class="st51" x1="229" y1="180.7" x2="245.5" y2="180.7"/>
			<g>
				<line class="st51" x1="327" y1="180.7" x2="343.5" y2="180.7"/>
				<line class="st52" x1="305.2" y1="180.7" x2="321.7" y2="180.7"/>
				<line class="st51" x1="249.9" y1="180.7" x2="298.1" y2="180.7"/>
			</g>
		</g>
		<line class="st51" x1="253.4" y1="256.9" x2="269.9" y2="256.9"/>
		<line class="st52" x1="253.4" y1="265.4" x2="315.3" y2="265.4"/>
		<line class="st51" x1="349.2" y1="265.4" x2="411.2" y2="265.4"/>
		<line class="st51" x1="319.4" y1="265.4" x2="343.9" y2="265.4"/>
		<line class="st51" x1="253.4" y1="273.8" x2="289.1" y2="273.8"/>
		<line class="st51" x1="293.5" y1="273.8" x2="329.2" y2="273.8"/>
		<line class="st52" x1="333.6" y1="273.8" x2="369.3" y2="273.8"/>
		<line class="st51" x1="373.7" y1="273.8" x2="388.9" y2="273.8"/>
		<line class="st51" x1="274.3" y1="256.9" x2="290.8" y2="256.9"/>
		<g>
			<line class="st51" x1="372.4" y1="256.9" x2="388.9" y2="256.9"/>
			<line class="st52" x1="350.6" y1="256.9" x2="367" y2="256.9"/>
			<line class="st51" x1="295.3" y1="256.9" x2="343.4" y2="256.9"/>
		</g>
		<g>
			<line class="st51" x1="365.1" y1="228.6" x2="381.6" y2="228.6"/>
			<line class="st52" x1="343.3" y1="228.6" x2="359.8" y2="228.6"/>
			<line class="st51" x1="288" y1="228.6" x2="336.2" y2="228.6"/>
		</g>
		<g>
			<g>
				<line class="st51" x1="244" y1="154.8" x2="260.5" y2="154.8"/>
				<line class="st51" x1="222.1" y1="154.8" x2="238.6" y2="154.8"/>
				<line class="st51" x1="166.9" y1="154.8" x2="215" y2="154.8"/>
			</g>
			<g>
				<line class="st51" x1="244" y1="170" x2="260.5" y2="170"/>
				<line class="st51" x1="222.1" y1="170" x2="238.6" y2="170"/>
				<line class="st52" x1="166.9" y1="170" x2="215" y2="170"/>
			</g>
			<g>
				<line class="st51" x1="183.4" y1="162.4" x2="166.9" y2="162.4"/>
				<line class="st51" x1="205.2" y1="162.4" x2="188.7" y2="162.4"/>
				<line class="st52" x1="260.5" y1="162.4" x2="212.3" y2="162.4"/>
			</g>
		</g>
		<g>
			<line class="st51" x1="286.6" y1="207.9" x2="303.1" y2="207.9"/>
			<line class="st51" x1="264.8" y1="207.9" x2="281.2" y2="207.9"/>
			<line class="st51" x1="209.5" y1="207.9" x2="257.6" y2="207.9"/>
		</g>
		<g>
			<line class="st51" x1="232.7" y1="223" x2="249.2" y2="223"/>
			<line class="st51" x1="210.9" y1="223" x2="227.4" y2="223"/>
			<line class="st52" x1="155.6" y1="223" x2="203.8" y2="223"/>
		</g>
		<g>
			<line class="st51" x1="226" y1="215.5" x2="209.5" y2="215.5"/>
			<line class="st51" x1="247.8" y1="215.5" x2="231.3" y2="215.5"/>
			<line class="st52" x1="303.1" y1="215.5" x2="254.9" y2="215.5"/>
		</g>
		<g>
			<line class="st51" x1="192" y1="231.9" x2="175.5" y2="231.9"/>
			<line class="st51" x1="213.8" y1="231.9" x2="197.3" y2="231.9"/>
			<line class="st52" x1="269.1" y1="231.9" x2="220.9" y2="231.9"/>
		</g>
		<g>
			<line class="st51" x1="226" y1="247.1" x2="209.5" y2="247.1"/>
			<line class="st51" x1="247.8" y1="247.1" x2="231.3" y2="247.1"/>
			<line class="st52" x1="303.1" y1="247.1" x2="254.9" y2="247.1"/>
		</g>
		<g>
			<line class="st51" x1="286.6" y1="239.5" x2="303.1" y2="239.5"/>
			<line class="st51" x1="264.8" y1="239.5" x2="281.2" y2="239.5"/>
			<line class="st52" x1="209.5" y1="239.5" x2="257.6" y2="239.5"/>
		</g>
		<g>
			<rect x="139.9" y="126" class="st7" width="5.3" height="5.2"/>
			<rect x="139.9" y="134.6" class="st7" width="5.3" height="5.2"/>
			<rect x="139.9" y="143.1" class="st7" width="5.3" height="5.2"/>
			<rect x="139.9" y="151.7" class="st7" width="5.3" height="5.2"/>
			<rect x="139.9" y="160.2" class="st7" width="5.3" height="5.2"/>
			<rect x="139.9" y="168.8" class="st7" width="5.3" height="5.2"/>
			<rect x="139.9" y="177.3" class="st7" width="5.3" height="5.2"/>
			<rect x="139.9" y="185.9" class="st7" width="5.3" height="5.2"/>
			<rect x="139.9" y="194.4" class="st7" width="5.3" height="5.2"/>
			<rect x="139.9" y="202.9" class="st7" width="5.3" height="5.2"/>
			<rect x="139.9" y="211.5" class="st7" width="5.3" height="5.2"/>
			<rect x="139.9" y="220" class="st7" width="5.3" height="5.2"/>
			<rect x="139.9" y="228.6" class="st7" width="5.3" height="5.2"/>
			<rect x="139.9" y="237.1" class="st7" width="5.3" height="5.2"/>
			<rect x="139.9" y="245.7" class="st7" width="5.3" height="5.2"/>
			<rect x="139.9" y="254.2" class="st7" width="5.3" height="5.2"/>
			<rect x="139.9" y="262.7" class="st7" width="5.3" height="5.2"/>
			<rect x="139.9" y="271.3" class="st7" width="5.3" height="5.2"/>
		</g>
		<text transform="matrix(1 0 0 1 161.7946 207.4711)" class="st11 st53 st54">JS</text>
		<text transform="matrix(1 0 0 1 315.4973 165.2016)" class="st11 st53 st54">C++</text>
		<text transform="matrix(1 0 0 1 151.2622 271.2831)" class="st11 st53 st54">HTML</text>
	</g>
</g>
</svg>
